<?xml version="1.0" standalone="no"?>
<!DOCTYPE svg PUBLIC "-//W3C//DTD SVG 20010904//EN"
 "http://www.w3.org/TR/2001/REC-SVG-20010904/DTD/svg10.dtd">
<svg version="1.0" xmlns="http://www.w3.org/2000/svg"
 width="3000.000000pt" height="3000.000000pt" viewBox="0 0 3000.000000 3000.000000"
 preserveAspectRatio="xMidYMid meet">

<g transform="translate(0.000000,3000.000000) scale(0.100000,-0.100000)"
fill="#000000" stroke="none">
<path d="M6207 25299 c-87 -20 -154 -74 -198 -159 l-24 -45 -3 -862 c-2 -849
-2 -862 18 -916 25 -67 84 -131 148 -160 46 -21 62 -22 582 -28 l535 -5 97
-26 c374 -101 656 -376 762 -742 43 -148 47 -244 44 -1109 l-3 -808 -245 -98
c-690 -278 -1235 -546 -1814 -893 -351 -211 -836 -542 -877 -600 -31 -43 -35
-97 -11 -151 24 -54 35 -61 342 -216 744 -376 1629 -714 2555 -974 l50 -14 3
-169 c1 -92 0 -174 -2 -180 -11 -27 -926 260 -1446 453 -652 242 -1352 567
-1823 845 -54 32 -102 58 -106 58 -23 0 -390 -350 -558 -532 -784 -850 -1224
-1722 -1348 -2676 -63 -486 -33 -980 90 -1478 212 -859 708 -1677 1471 -2424
244 -240 405 -377 448 -386 53 -9 75 -1 256 96 493 265 1097 533 1680 745 441
161 1317 435 1334 417 3 -3 6 -83 6 -178 l0 -173 -43 -12 c-23 -6 -159 -46
-302 -89 -697 -211 -1333 -449 -1895 -708 -212 -97 -475 -228 -522 -259 -43
-29 -68 -76 -68 -128 0 -72 23 -99 174 -204 744 -518 1594 -963 2566 -1341
320 -124 485 -180 531 -180 l44 0 64 -152 c81 -192 270 -567 386 -763 212
-361 446 -687 740 -1031 132 -155 496 -522 655 -661 1062 -924 2338 -1493
3705 -1653 310 -36 473 -44 880 -44 432 1 624 13 955 60 903 129 1758 451
2525 951 817 533 1510 1265 1995 2109 164 284 352 686 450 961 l32 92 157 52
c963 320 1905 743 2671 1202 288 172 754 484 815 544 36 37 35 96 -4 131 -29
28 -413 224 -651 332 -832 381 -1847 722 -2910 979 -421 102 -1147 252 -1227
255 -66 2 -77 -16 -143 -235 -378 -1248 -958 -2266 -1735 -3045 -332 -333
-661 -590 -1039 -812 -92 -54 -111 -84 -92 -142 8 -25 21 -40 46 -51 33 -16
49 -15 265 7 543 56 1126 139 1635 233 58 11 107 18 109 15 6 -5 -36 -64 -123
-172 -387 -486 -924 -857 -1511 -1045 -383 -123 -696 -164 -1188 -154 -296 6
-419 17 -627 58 -826 163 -1559 650 -2040 1354 -33 49 -60 92 -60 97 0 5 36
-10 80 -32 329 -166 841 -313 1164 -336 71 -5 85 -3 114 15 18 12 41 35 52 53
20 33 20 55 20 2279 l0 2246 -39 44 -39 44 -343 -1 c-390 -2 -996 -27 -1427
-60 l-82 -7 2 174 3 174 75 7 c272 24 965 56 1395 64 370 7 396 12 435 76 20
33 20 45 20 1496 0 1611 5 1496 -62 1543 -32 23 -39 24 -468 36 -437 12 -924
34 -1230 56 l-165 12 -3 174 -3 174 98 -6 c575 -37 971 -55 1403 -64 302 -5
338 -4 367 11 69 35 63 -185 63 2462 l0 2399 -68 -3 c-226 -10 -602 -85 -852
-170 -302 -104 -658 -279 -917 -454 -40 -26 -77 -48 -82 -48 -14 0 -15 1175
-1 1325 5 61 19 146 31 190 99 381 409 680 800 771 63 15 151 18 614 23 l540
6 55 31 c63 36 123 107 140 168 8 29 10 287 8 906 l-3 865 -22 40 c-30 55 -88
110 -148 137 l-50 23 -4310 2 c-2490 0 -4326 -3 -4348 -8z m8303 -1059 l0
-479 -1102 -4 c-1201 -3 -1169 -2 -1408 -62 -607 -152 -1101 -551 -1386 -1118
-20 -39 -51 -110 -69 -157 -31 -78 -34 -83 -43 -60 -41 105 -60 148 -112 250
-278 545 -796 953 -1385 1090 -235 55 -207 54 -1367 57 l-1078 4 0 479 0 480
3975 0 3975 0 0 -480z m-5836 -720 c455 -44 853 -229 1170 -546 283 -283 458
-625 532 -1044 16 -88 18 -488 21 -5795 2 -3936 6 -5751 14 -5865 64 -978 411
-1913 1001 -2695 860 -1140 2135 -1854 3551 -1990 1160 -111 2291 147 3237
738 332 208 572 398 863 684 324 320 606 683 825 1065 61 105 226 432 252 496
11 27 21 34 69 48 31 8 69 20 85 25 16 5 31 7 34 4 8 -7 -180 -383 -268 -537
-857 -1494 -2349 -2516 -4055 -2777 -316 -49 -426 -55 -925 -56 -484 0 -565 4
-880 45 -1064 138 -2069 547 -2937 1196 -1012 757 -1776 1808 -2180 2999 -156
459 -262 951 -303 1400 -6 66 -13 136 -17 155 -3 19 -9 2548 -12 5620 l-7
5585 -22 100 c-53 243 -162 491 -292 665 -128 171 -321 346 -483 439 -31 18
-59 36 -62 42 -8 13 651 12 789 -1z m4506 3 c0 -5 -27 -22 -59 -40 -175 -96
-398 -306 -519 -487 -141 -210 -212 -384 -269 -653 -16 -72 -17 -539 -21
-6153 -2 -4310 0 -6126 8 -6250 61 -989 493 -1900 1215 -2564 626 -575 1401
-920 2235 -996 176 -15 758 -13 925 5 1036 110 1942 605 2590 1415 133 167
332 476 406 634 l29 61 70 16 c44 10 70 12 70 6 0 -13 -125 -251 -192 -364
-590 -1002 -1519 -1753 -2621 -2117 -454 -151 -915 -229 -1432 -243 -840 -22
-1618 150 -2348 519 -454 229 -840 510 -1213 883 -309 308 -519 573 -730 920
-107 177 -287 537 -358 716 -181 460 -288 935 -326 1439 -6 88 -10 2114 -10
5840 0 6210 -4 5768 55 5999 49 194 136 393 243 556 319 488 830 799 1404 854
107 11 848 13 848 4z"/>
<path d="M17555 25305 c-5 -2 -26 -6 -46 -9 -50 -9 -124 -60 -159 -112 -62
-88 -61 -78 -58 -996 3 -827 3 -833 24 -879 30 -63 86 -123 142 -151 47 -23
48 -23 602 -29 609 -7 604 -6 780 -72 49 -19 127 -56 171 -83 91 -54 227 -177
296 -266 57 -75 127 -206 158 -298 52 -154 55 -192 55 -756 0 -299 -4 -524 -9
-524 -5 0 -93 18 -196 40 -430 93 -1028 195 -1520 259 -353 47 -696 82 -727
76 -44 -10 -88 -68 -88 -116 0 -60 23 -93 92 -135 547 -329 1106 -857 1548
-1464 505 -693 925 -1583 1174 -2493 51 -184 57 -197 97 -221 40 -24 73 -21
350 34 1719 342 3279 866 4419 1485 127 69 150 89 157 143 9 68 -9 95 -126
180 -762 560 -1646 1040 -2642 1435 -206 83 -514 197 -647 242 -10 4 -12 162
-10 822 l3 818 27 96 c107 390 391 667 789 771 80 20 112 22 629 27 l545 6 54
30 c29 16 68 47 87 69 67 78 65 38 62 1002 l-3 869 -22 40 c-30 55 -88 110
-148 137 l-50 23 -2900 2 c-1595 1 -2904 0 -2910 -2z m5455 -1064 l0 -480
-587 -4 c-489 -3 -603 -6 -678 -20 -528 -96 -952 -407 -1192 -874 l-68 -131
-65 127 c-88 170 -171 283 -309 421 -203 203 -450 346 -723 420 -192 52 -194
52 -870 57 l-638 5 0 479 0 479 2565 0 2565 0 0 -479z m-3535 -813 c179 -70
357 -191 500 -339 184 -191 306 -419 366 -684 22 -98 23 -117 26 -792 2 -381
0 -693 -4 -693 -4 0 -63 14 -130 32 l-121 33 -5 630 c-4 585 -6 638 -25 740
-82 434 -322 807 -684 1062 -43 30 -78 56 -78 58 0 5 96 -24 155 -47z m1999
-39 c-330 -249 -544 -582 -636 -987 -21 -94 -22 -117 -25 -855 l-4 -757 -23 6
c-13 3 -56 16 -97 28 l-74 23 -3 729 c-2 791 -2 797 54 969 36 113 105 254
172 354 72 108 221 264 332 347 79 60 326 194 357 194 8 0 -16 -23 -53 -51z"/>
<path d="M15170 19103 c0 -2357 0 -2399 20 -2430 34 -57 32 -57 415 -50 1215
23 2453 129 3630 311 l270 41 -3 25 c-11 112 -209 737 -327 1035 -662 1673
-1797 2877 -3110 3298 -269 87 -480 127 -832 162 l-63 6 0 -2398z"/>
<path d="M25140 18450 c-19 -3 -114 -50 -210 -104 -194 -108 -596 -309 -821
-409 -1058 -476 -2308 -863 -3725 -1152 -271 -56 -309 -68 -351 -113 -62 -67
-65 -117 -24 -374 168 -1045 159 -2176 -26 -3178 -13 -74 -27 -171 -30 -215
-4 -71 -2 -85 19 -125 46 -84 70 -94 394 -160 1749 -354 3244 -859 4452 -1504
98 -51 194 -97 215 -100 78 -14 130 12 272 140 1046 935 1667 2008 1810 3126
82 644 1 1318 -234 1945 -276 733 -779 1455 -1454 2082 -146 135 -193 159
-287 141z"/>
<path d="M19215 16579 c-1113 -171 -2238 -268 -3507 -302 -415 -12 -438 -13
-464 -33 -15 -11 -37 -33 -48 -48 -21 -27 -21 -31 -24 -1474 -3 -1613 -7
-1504 66 -1560 34 -26 42 -27 156 -30 1427 -29 2529 -117 3746 -298 341 -51
355 -50 408 10 26 29 33 54 61 197 110 577 161 1126 161 1744 0 551 -41 1050
-129 1564 -31 181 -46 218 -99 245 -50 25 -77 24 -327 -15z"/>
<path d="M15246 12761 c-16 -11 -38 -34 -50 -53 l-21 -33 0 -2242 0 -2242 21
-27 c44 -59 68 -69 162 -67 48 1 141 11 207 22 787 138 1505 521 2144 1146
695 679 1236 1571 1599 2635 131 386 140 435 85 500 -31 38 -65 55 -123 64
-545 84 -1164 159 -1735 210 -662 60 -1558 106 -2050 106 -190 0 -213 -2 -239
-19z"/>
</g>
</svg>
