<?xml version="1.0" standalone="no"?>
<!DOCTYPE svg PUBLIC "-//W3C//DTD SVG 20010904//EN"
 "http://www.w3.org/TR/2001/REC-SVG-20010904/DTD/svg10.dtd">
<svg version="1.0" xmlns="http://www.w3.org/2000/svg"
 width="1000.000000pt" height="1000.000000pt" viewBox="0 0 1000.000000 1000.000000"
 preserveAspectRatio="xMidYMid meet">

<g transform="translate(0.000000,1000.000000) scale(0.100000,-0.100000)"
fill="#000000" stroke="none">
<path d="M4725 8989 c-506 -52 -992 -252 -1405 -578 -128 -101 -1623 -1593
-1724 -1721 -324 -408 -520 -875 -580 -1380 -17 -148 -17 -472 0 -620 60 -505
256 -972 580 -1380 101 -127 1596 -1620 1724 -1721 296 -234 635 -406 981
-498 229 -62 390 -83 649 -86 129 -2 273 0 320 6 561 61 1067 280 1488 645
149 129 1564 1550 1646 1654 325 409 520 875 580 1385 18 151 18 464 0 615
-59 503 -256 972 -580 1380 -101 128 -1596 1620 -1724 1721 -416 328 -888 522
-1410 578 -104 11 -436 11 -545 0z m507 -1305 c240 -39 515 -171 686 -331 l63
-58 -324 -323 -324 -324 -54 41 c-138 105 -329 123 -488 46 -73 -36 -100 -62
-782 -744 -678 -678 -708 -709 -743 -781 -70 -145 -71 -276 -1 -418 98 -198
319 -302 528 -247 130 34 117 22 892 794 428 426 759 748 800 778 162 117 332
195 525 240 145 34 378 40 535 13 196 -34 414 -124 575 -238 92 -66 231 -203
307 -302 78 -103 183 -312 218 -435 73 -254 73 -537 0 -790 -32 -112 -117
-290 -186 -393 -68 -100 -1500 -1540 -1629 -1638 -162 -123 -395 -224 -603
-260 -123 -22 -344 -22 -462 0 -262 49 -485 156 -692 334 -29 24 -53 50 -53
56 0 6 144 155 319 330 l319 319 49 -35 c101 -74 178 -101 293 -100 88 0 179
26 247 71 27 16 366 349 754 738 753 754 740 740 768 864 13 56 13 162 0 218
-53 231 -286 388 -525 354 -160 -23 -125 7 -954 -818 -788 -785 -798 -793
-985 -888 -685 -344 -1522 -63 -1868 628 -97 194 -141 386 -141 615 0 229 44
421 141 615 104 207 111 214 917 1021 816 815 829 827 1041 929 267 129 541
168 837 119z"/>
</g>
</svg>
